<svg width="367" height="360" xmlns="http://www.w3.org/2000/svg" xmlns:xlink="http://www.w3.org/1999/xlink" xml:space="preserve" overflow="hidden"><defs><clipPath id="clip0"><rect x="2649" y="63" width="367" height="360"/></clipPath></defs><g clip-path="url(#clip0)" transform="translate(-2649 -63)"><path d="M2742 159.67C2741.63 110.518 2781.18 70.3728 2830.33 70.0027 2879.48 69.6325 2919.63 109.178 2920 158.33 2920 158.517 2920 158.705 2920 158.892" stroke="#000000" stroke-width="13.75" stroke-miterlimit="8" fill="none" fill-rule="evenodd"/><path d="M2919.33 153.002C2968.48 152.632 3008.63 192.178 3009 241.33 3009.37 290.482 2969.82 330.627 2920.67 330.997 2920.48 330.999 2920.3 331 2920.11 331" stroke="#000000" stroke-width="13.75" stroke-miterlimit="8" fill="none" fill-rule="evenodd"/><path d="M2920 326.33C2920.37 375.482 2880.82 415.627 2831.67 415.997 2782.52 416.368 2742.37 376.822 2742 327.67 2742 327.483 2742 327.295 2742 327.108" stroke="#000000" stroke-width="13.75" stroke-miterlimit="8" fill="none" fill-rule="evenodd"/><path d="M2745.67 330.997C2696.52 331.367 2656.37 291.822 2656 242.67 2655.63 193.518 2695.18 153.372 2744.33 153.002 2744.52 153.001 2744.71 153 2744.89 153" stroke="#000000" stroke-width="13.75" stroke-miterlimit="8" fill="none" fill-rule="evenodd"/></g></svg>