<svg width="381" height="107" xmlns="http://www.w3.org/2000/svg" xmlns:xlink="http://www.w3.org/1999/xlink" xml:space="preserve" overflow="hidden"><defs><clipPath id="clip0"><rect x="1057" y="963" width="381" height="107"/></clipPath></defs><g clip-path="url(#clip0)" transform="translate(-1057 -963)"><path d="M1059.5 1016.5C1059.5 988.334 1083.23 965.5 1112.5 965.5 1141.77 965.5 1165.5 988.334 1165.5 1016.5 1165.5 1044.67 1141.77 1067.5 1112.5 1067.5 1083.23 1067.5 1059.5 1044.67 1059.5 1016.5Z" stroke="#000000" stroke-width="4.58333" stroke-miterlimit="8" fill-rule="evenodd"/><path d="M1194.5 1016.5C1194.5 988.334 1218.23 965.5 1247.5 965.5 1276.77 965.5 1300.5 988.334 1300.5 1016.5 1300.5 1044.67 1276.77 1067.5 1247.5 1067.5 1218.23 1067.5 1194.5 1044.67 1194.5 1016.5Z" stroke="#000000" stroke-width="4.58333" stroke-miterlimit="8" fill-rule="evenodd"/><path d="M1329.5 1016.5C1329.5 988.334 1353.23 965.5 1382.5 965.5 1411.77 965.5 1435.5 988.334 1435.5 1016.5 1435.5 1044.67 1411.77 1067.5 1382.5 1067.5 1353.23 1067.5 1329.5 1044.67 1329.5 1016.5Z" stroke="#000000" stroke-width="4.58333" stroke-miterlimit="8" fill-rule="evenodd"/></g></svg>