<svg width="1600" height="800" xmlns="http://www.w3.org/2000/svg">

<g stroke="#000000" stroke-width="12" stroke-linecap="round" stroke-linejoin="round" stroke-miterlimit="10" fill="none" transform="translate(300 0)">

<path d="M438.07 321.119C439.352 299.344 457.596 282.757 478.82 284.072 497.418 285.224 512.543 299.873 514.733 318.856"/>

<path d="M515.206 321.001C536.469 320.837 553.837 338.164 553.999 359.702 554.161 381.241 537.056 398.834 515.794 398.999 515.558 399.001 515.322 399 515.085 398.998"/>

<path d="M514.897 400.848C513.344 422.33 494.895 438.469 473.689 436.896 454.373 435.463 439.115 419.719 438.057 400.13"/>

<path d="M437.172 399.957C415.657 398.934 399.033 380.44 400.043 358.649 400.996 338.071 417.403 321.691 437.732 321.021"/>

</g>
</svg>
